<svg xmlns="http://www.w3.org/2000/svg" viewBox="0 0 16 16"><defs><style>.a{fill:none;}.b{fill:#ee283b;}</style></defs><title>phone</title><rect class="a" width="16" height="16"/><path class="b" d="M15.4.776a.594.594,0,0,1,.438.25A.8.8,0,0,1,16,1.5a14.259,14.259,0,0,1-1.969,7.313,14.557,14.557,0,0,1-5.219,5.218A14.265,14.265,0,0,1,1.5,16a.787.787,0,0,1-.469-.157.591.591,0,0,1-.25-.437l-.75-3.25a.706.706,0,0,1,.063-.5.675.675,0,0,1,.375-.344l3.5-1.5a.8.8,0,0,1,.468-.047.627.627,0,0,1,.407.266L6.37,11.9A10.968,10.968,0,0,0,9.635,9.62,11.456,11.456,0,0,0,11.9,6.37L10.026,4.808a.745.745,0,0,1-.25-.391.786.786,0,0,1,.031-.484l1.5-3.5a.693.693,0,0,1,.344-.344.706.706,0,0,1,.5-.063Z"/></svg>